<mxfile host="app.diagrams.net" modified="2023-03-20T07:35:57.585Z" agent="5.0 (Macintosh; Intel Mac OS X 10_15_7) AppleWebKit/537.36 (KHTML, like Gecko) Chrome/109.0.0.0 Safari/537.36" etag="X0z_f3zZRcPL-6tfXVOJ" version="20.8.23" type="github">
  <diagram name="Page-1" id="c4acf3e9-155e-7222-9cf6-157b1a14988f">
    <mxGraphModel dx="2195" dy="1822" grid="1" gridSize="10" guides="1" tooltips="1" connect="1" arrows="1" fold="1" page="1" pageScale="1" pageWidth="850" pageHeight="1100" background="none" math="0" shadow="0">
      <root>
        <mxCell id="0" />
        <mxCell id="1" parent="0" />
        <mxCell id="qrAak1ryVlNVm7ZH4c8O-1" value="IndexManager" style="swimlane;fontStyle=1;align=center;verticalAlign=top;childLayout=stackLayout;horizontal=1;startSize=26;horizontalStack=0;resizeParent=1;resizeParentMax=0;resizeLast=0;collapsible=1;marginBottom=0;fontFamily=Comic Sans MS;rounded=1;" parent="1" vertex="1">
          <mxGeometry x="100" y="250" width="254" height="230" as="geometry" />
        </mxCell>
        <mxCell id="qrAak1ryVlNVm7ZH4c8O-2" value="vector&lt;IndexWrapper&gt;&#xa;map&lt;field_name, IndexWrapper&gt;&#xa;map&lt;field_name, FieldInfo&gt;" style="text;strokeColor=none;fillColor=none;align=left;verticalAlign=top;spacingLeft=4;spacingRight=4;overflow=hidden;rotatable=0;points=[[0,0.5],[1,0.5]];portConstraint=eastwest;fontFamily=Comic Sans MS;rounded=1;" parent="qrAak1ryVlNVm7ZH4c8O-1" vertex="1">
          <mxGeometry y="26" width="254" height="54" as="geometry" />
        </mxCell>
        <mxCell id="qrAak1ryVlNVm7ZH4c8O-3" value="" style="line;strokeWidth=1;fillColor=none;align=left;verticalAlign=middle;spacingTop=-1;spacingLeft=3;spacingRight=3;rotatable=0;labelPosition=right;points=[];portConstraint=eastwest;strokeColor=inherit;fontFamily=Comic Sans MS;rounded=1;" parent="qrAak1ryVlNVm7ZH4c8O-1" vertex="1">
          <mxGeometry y="80" width="254" height="8" as="geometry" />
        </mxCell>
        <mxCell id="qrAak1ryVlNVm7ZH4c8O-4" value="load_conf()&#xa;insert(line)&#xa;delete(expression)&#xa;update(expression, result)&#xa;search(expression)&#xa;&#xa;_gen_index_expression(expression_str, &#xa;Â expression)" style="text;strokeColor=none;fillColor=none;align=left;verticalAlign=top;spacingLeft=4;spacingRight=4;overflow=hidden;rotatable=0;points=[[0,0.5],[1,0.5]];portConstraint=eastwest;fontFamily=Comic Sans MS;rounded=1;" parent="qrAak1ryVlNVm7ZH4c8O-1" vertex="1">
          <mxGeometry y="88" width="254" height="142" as="geometry" />
        </mxCell>
        <mxCell id="qrAak1ryVlNVm7ZH4c8O-6" value="IndexWrapper" style="swimlane;fontStyle=1;align=center;verticalAlign=top;childLayout=stackLayout;horizontal=1;startSize=26;horizontalStack=0;resizeParent=1;resizeParentMax=0;resizeLast=0;collapsible=1;marginBottom=0;fontFamily=Comic Sans MS;rounded=1;" parent="1" vertex="1">
          <mxGeometry x="880" y="200" width="230" height="186" as="geometry">
            <mxRectangle x="470" y="120" width="70" height="30" as="alternateBounds" />
          </mxGeometry>
        </mxCell>
        <mxCell id="qrAak1ryVlNVm7ZH4c8O-7" value="set&lt;string&gt; _filed_set&#xa;int _index_level&#xa;vector&lt;IndexType&gt; _index_type_vec&#xa;vector&lt;set&lt;string&gt;&gt; _field_set_vec&#xa;BaseIndex _head_index&#xa;&#xa;IndexReader;&#xa;IndexWriter;" style="text;strokeColor=none;fillColor=none;align=left;verticalAlign=top;spacingLeft=4;spacingRight=4;overflow=hidden;rotatable=0;points=[[0,0.5],[1,0.5]];portConstraint=eastwest;fontFamily=Comic Sans MS;rounded=1;" parent="qrAak1ryVlNVm7ZH4c8O-6" vertex="1">
          <mxGeometry y="26" width="230" height="126" as="geometry" />
        </mxCell>
        <mxCell id="qrAak1ryVlNVm7ZH4c8O-8" value="" style="line;strokeWidth=1;fillColor=none;align=left;verticalAlign=middle;spacingTop=-1;spacingLeft=3;spacingRight=3;rotatable=0;labelPosition=right;points=[];portConstraint=eastwest;strokeColor=inherit;fontFamily=Comic Sans MS;rounded=1;" parent="qrAak1ryVlNVm7ZH4c8O-6" vertex="1">
          <mxGeometry y="152" width="230" height="8" as="geometry" />
        </mxCell>
        <mxCell id="qrAak1ryVlNVm7ZH4c8O-9" value="+ init(MemDbConf)" style="text;strokeColor=none;fillColor=none;align=left;verticalAlign=top;spacingLeft=4;spacingRight=4;overflow=hidden;rotatable=0;points=[[0,0.5],[1,0.5]];portConstraint=eastwest;fontFamily=Comic Sans MS;rounded=1;" parent="qrAak1ryVlNVm7ZH4c8O-6" vertex="1">
          <mxGeometry y="160" width="230" height="26" as="geometry" />
        </mxCell>
        <mxCell id="qrAak1ryVlNVm7ZH4c8O-10" value="1" style="endArrow=open;html=1;endSize=12;startArrow=diamondThin;startSize=14;startFill=0;edgeStyle=elbowEdgeStyle;align=left;verticalAlign=bottom;rounded=1;fontFamily=Comic Sans MS;exitX=0.5;exitY=0;exitDx=0;exitDy=0;elbow=vertical;" parent="1" source="qrAak1ryVlNVm7ZH4c8O-1" target="7CuqwactgT-sFkg9bI5Z-4" edge="1">
          <mxGeometry x="-0.8667" y="-21" relative="1" as="geometry">
            <mxPoint x="260" y="230" as="sourcePoint" />
            <mxPoint x="240" y="191" as="targetPoint" />
            <mxPoint as="offset" />
          </mxGeometry>
        </mxCell>
        <mxCell id="qrAak1ryVlNVm7ZH4c8O-14" value="HashMapIndex" style="swimlane;fontStyle=1;align=center;verticalAlign=top;childLayout=stackLayout;horizontal=1;startSize=26;horizontalStack=0;resizeParent=1;resizeParentMax=0;resizeLast=0;collapsible=1;marginBottom=0;fontFamily=Comic Sans MS;rounded=1;" parent="1" vertex="1">
          <mxGeometry x="1201" y="701" width="160" height="86" as="geometry" />
        </mxCell>
        <mxCell id="qrAak1ryVlNVm7ZH4c8O-15" value="enum index_type;" style="text;strokeColor=none;fillColor=none;align=left;verticalAlign=top;spacingLeft=4;spacingRight=4;overflow=hidden;rotatable=0;points=[[0,0.5],[1,0.5]];portConstraint=eastwest;fontFamily=Comic Sans MS;rounded=1;" parent="qrAak1ryVlNVm7ZH4c8O-14" vertex="1">
          <mxGeometry y="26" width="160" height="26" as="geometry" />
        </mxCell>
        <mxCell id="qrAak1ryVlNVm7ZH4c8O-16" value="" style="line;strokeWidth=1;fillColor=none;align=left;verticalAlign=middle;spacingTop=-1;spacingLeft=3;spacingRight=3;rotatable=0;labelPosition=right;points=[];portConstraint=eastwest;strokeColor=inherit;fontFamily=Comic Sans MS;rounded=1;" parent="qrAak1ryVlNVm7ZH4c8O-14" vertex="1">
          <mxGeometry y="52" width="160" height="8" as="geometry" />
        </mxCell>
        <mxCell id="qrAak1ryVlNVm7ZH4c8O-17" value="+ method(type): type" style="text;strokeColor=none;fillColor=none;align=left;verticalAlign=top;spacingLeft=4;spacingRight=4;overflow=hidden;rotatable=0;points=[[0,0.5],[1,0.5]];portConstraint=eastwest;fontFamily=Comic Sans MS;rounded=1;" parent="qrAak1ryVlNVm7ZH4c8O-14" vertex="1">
          <mxGeometry y="60" width="160" height="26" as="geometry" />
        </mxCell>
        <mxCell id="qrAak1ryVlNVm7ZH4c8O-18" value="SkipListIndex" style="swimlane;fontStyle=1;align=center;verticalAlign=top;childLayout=stackLayout;horizontal=1;startSize=26;horizontalStack=0;resizeParent=1;resizeParentMax=0;resizeLast=0;collapsible=1;marginBottom=0;fontFamily=Comic Sans MS;rounded=1;" parent="1" vertex="1">
          <mxGeometry x="1672" y="705" width="160" height="86" as="geometry" />
        </mxCell>
        <mxCell id="qrAak1ryVlNVm7ZH4c8O-19" value="enum index_type;" style="text;strokeColor=none;fillColor=none;align=left;verticalAlign=top;spacingLeft=4;spacingRight=4;overflow=hidden;rotatable=0;points=[[0,0.5],[1,0.5]];portConstraint=eastwest;fontFamily=Comic Sans MS;rounded=1;" parent="qrAak1ryVlNVm7ZH4c8O-18" vertex="1">
          <mxGeometry y="26" width="160" height="26" as="geometry" />
        </mxCell>
        <mxCell id="qrAak1ryVlNVm7ZH4c8O-20" value="" style="line;strokeWidth=1;fillColor=none;align=left;verticalAlign=middle;spacingTop=-1;spacingLeft=3;spacingRight=3;rotatable=0;labelPosition=right;points=[];portConstraint=eastwest;strokeColor=inherit;fontFamily=Comic Sans MS;rounded=1;" parent="qrAak1ryVlNVm7ZH4c8O-18" vertex="1">
          <mxGeometry y="52" width="160" height="8" as="geometry" />
        </mxCell>
        <mxCell id="qrAak1ryVlNVm7ZH4c8O-21" value="+ method(type): type" style="text;strokeColor=none;fillColor=none;align=left;verticalAlign=top;spacingLeft=4;spacingRight=4;overflow=hidden;rotatable=0;points=[[0,0.5],[1,0.5]];portConstraint=eastwest;fontFamily=Comic Sans MS;rounded=1;" parent="qrAak1ryVlNVm7ZH4c8O-18" vertex="1">
          <mxGeometry y="60" width="160" height="26" as="geometry" />
        </mxCell>
        <mxCell id="qrAak1ryVlNVm7ZH4c8O-22" value="Extends" style="endArrow=block;endSize=16;endFill=0;html=1;rounded=1;fontFamily=Comic Sans MS;exitX=0.5;exitY=0;exitDx=0;exitDy=0;strokeColor=default;entryX=0.25;entryY=1;entryDx=0;entryDy=0;edgeStyle=elbowEdgeStyle;elbow=vertical;" parent="1" source="qrAak1ryVlNVm7ZH4c8O-14" target="qrAak1ryVlNVm7ZH4c8O-30" edge="1">
          <mxGeometry x="0.04" y="4" width="160" relative="1" as="geometry">
            <mxPoint x="1291" y="699" as="sourcePoint" />
            <mxPoint x="1323.5396825396824" y="593" as="targetPoint" />
            <mxPoint as="offset" />
          </mxGeometry>
        </mxCell>
        <mxCell id="qrAak1ryVlNVm7ZH4c8O-23" value="Extends" style="endArrow=block;endSize=16;endFill=0;html=1;rounded=1;fontFamily=Comic Sans MS;exitX=0.5;exitY=0;exitDx=0;exitDy=0;edgeStyle=elbowEdgeStyle;elbow=vertical;" parent="1" source="qrAak1ryVlNVm7ZH4c8O-18" target="qrAak1ryVlNVm7ZH4c8O-30" edge="1">
          <mxGeometry width="160" relative="1" as="geometry">
            <mxPoint x="1191" y="709" as="sourcePoint" />
            <mxPoint x="1361" y="609" as="targetPoint" />
          </mxGeometry>
        </mxCell>
        <mxCell id="qrAak1ryVlNVm7ZH4c8O-30" value="&lt;p style=&quot;margin:0px;margin-top:4px;text-align:center;&quot;&gt;&lt;b&gt;BaseIndex&lt;/b&gt;&lt;/p&gt;&lt;hr size=&quot;1&quot;&gt;&lt;p style=&quot;margin:0px;margin-left:4px;&quot;&gt;_field_vec&lt;/p&gt;&lt;p style=&quot;margin:0px;margin-left:4px;&quot;&gt;_field_type_vec&lt;/p&gt;&lt;hr size=&quot;1&quot;&gt;&lt;p style=&quot;margin:0px;margin-left:4px;&quot;&gt;insert&lt;br style=&quot;border-color: var(--border-color); padding: 0px; margin: 0px; font-family: &amp;quot;Comic Sans MS&amp;quot;;&quot;&gt;&lt;font face=&quot;Comic Sans MS&quot;&gt;search&lt;/font&gt;&lt;/p&gt;&lt;p style=&quot;margin:0px;margin-left:4px;&quot;&gt;&lt;font face=&quot;Comic Sans MS&quot;&gt;+&lt;/font&gt;&lt;/p&gt;" style="verticalAlign=top;align=left;overflow=fill;fontSize=12;fontFamily=Helvetica;html=1;rounded=1;" parent="1" vertex="1">
          <mxGeometry x="1330" y="355" width="160" height="128" as="geometry" />
        </mxCell>
        <mxCell id="qrAak1ryVlNVm7ZH4c8O-32" value="1" style="endArrow=open;html=1;endSize=12;startArrow=diamondThin;startSize=14;startFill=0;edgeStyle=orthogonalEdgeStyle;align=left;verticalAlign=bottom;rounded=1;strokeColor=default;fontFamily=Comic Sans MS;entryX=0.5;entryY=0;entryDx=0;entryDy=0;exitX=1;exitY=0.5;exitDx=0;exitDy=0;" parent="1" source="qrAak1ryVlNVm7ZH4c8O-7" target="qrAak1ryVlNVm7ZH4c8O-30" edge="1">
          <mxGeometry x="-1" y="3" relative="1" as="geometry">
            <mxPoint x="974" y="365" as="sourcePoint" />
            <mxPoint x="1286" y="288" as="targetPoint" />
          </mxGeometry>
        </mxCell>
        <mxCell id="qrAak1ryVlNVm7ZH4c8O-37" value="Use" style="endArrow=open;endSize=12;dashed=1;html=1;rounded=1;strokeColor=default;fontFamily=Comic Sans MS;exitX=0.272;exitY=1.008;exitDx=0;exitDy=0;exitPerimeter=0;entryX=0.5;entryY=0;entryDx=0;entryDy=0;" parent="1" source="qrAak1ryVlNVm7ZH4c8O-4" target="7CuqwactgT-sFkg9bI5Z-38" edge="1">
          <mxGeometry width="160" relative="1" as="geometry">
            <mxPoint x="254" y="400" as="sourcePoint" />
            <mxPoint x="252" y="499" as="targetPoint" />
          </mxGeometry>
        </mxCell>
        <mxCell id="qrAak1ryVlNVm7ZH4c8O-40" value="Use" style="endArrow=open;endSize=12;dashed=1;html=1;rounded=1;strokeColor=default;fontFamily=Comic Sans MS;entryX=0.5;entryY=0;entryDx=0;entryDy=0;edgeStyle=elbowEdgeStyle;exitX=0.394;exitY=1;exitDx=0;exitDy=0;exitPerimeter=0;elbow=vertical;" parent="1" source="7CuqwactgT-sFkg9bI5Z-41" target="2lpuwBWSwxphZOeOkGQh-22" edge="1">
          <mxGeometry width="160" relative="1" as="geometry">
            <mxPoint x="127" y="660" as="sourcePoint" />
            <mxPoint x="270" y="788" as="targetPoint" />
            <mxPoint as="offset" />
          </mxGeometry>
        </mxCell>
        <mxCell id="qrAak1ryVlNVm7ZH4c8O-41" value="IndexReader" style="swimlane;fontStyle=1;align=center;verticalAlign=top;childLayout=stackLayout;horizontal=1;startSize=26;horizontalStack=0;resizeParent=1;resizeParentMax=0;resizeLast=0;collapsible=1;marginBottom=0;fontFamily=Comic Sans MS;rounded=1;" parent="1" vertex="1">
          <mxGeometry x="819" y="495" width="201" height="60" as="geometry">
            <mxRectangle x="470" y="120" width="70" height="30" as="alternateBounds" />
          </mxGeometry>
        </mxCell>
        <mxCell id="qrAak1ryVlNVm7ZH4c8O-43" value="" style="line;strokeWidth=1;fillColor=none;align=left;verticalAlign=middle;spacingTop=-1;spacingLeft=3;spacingRight=3;rotatable=0;labelPosition=right;points=[];portConstraint=eastwest;strokeColor=inherit;fontFamily=Comic Sans MS;rounded=1;" parent="qrAak1ryVlNVm7ZH4c8O-41" vertex="1">
          <mxGeometry y="26" width="201" height="8" as="geometry" />
        </mxCell>
        <mxCell id="qrAak1ryVlNVm7ZH4c8O-44" value="+ search(Index, Expression)" style="text;strokeColor=none;fillColor=none;align=left;verticalAlign=top;spacingLeft=4;spacingRight=4;overflow=hidden;rotatable=0;points=[[0,0.5],[1,0.5]];portConstraint=eastwest;fontFamily=Comic Sans MS;rounded=1;" parent="qrAak1ryVlNVm7ZH4c8O-41" vertex="1">
          <mxGeometry y="34" width="201" height="26" as="geometry" />
        </mxCell>
        <mxCell id="qrAak1ryVlNVm7ZH4c8O-45" value="Use" style="endArrow=open;endSize=12;dashed=1;html=1;rounded=1;strokeColor=default;fontFamily=Comic Sans MS;exitX=0.408;exitY=1.038;exitDx=0;exitDy=0;entryX=0.75;entryY=0;entryDx=0;entryDy=0;edgeStyle=elbowEdgeStyle;elbow=vertical;exitPerimeter=0;" parent="1" source="qrAak1ryVlNVm7ZH4c8O-44" target="2lpuwBWSwxphZOeOkGQh-22" edge="1">
          <mxGeometry width="160" relative="1" as="geometry">
            <mxPoint x="260" y="504" as="sourcePoint" />
            <mxPoint x="355" y="730" as="targetPoint" />
            <Array as="points">
              <mxPoint x="380" y="630" />
            </Array>
          </mxGeometry>
        </mxCell>
        <mxCell id="qrAak1ryVlNVm7ZH4c8O-46" value="IndexWriter" style="swimlane;fontStyle=1;align=center;verticalAlign=top;childLayout=stackLayout;horizontal=1;startSize=26;horizontalStack=0;resizeParent=1;resizeParentMax=0;resizeLast=0;collapsible=1;marginBottom=0;fontFamily=Comic Sans MS;rounded=1;" parent="1" vertex="1">
          <mxGeometry x="992" y="575" width="210" height="90" as="geometry">
            <mxRectangle x="470" y="120" width="70" height="30" as="alternateBounds" />
          </mxGeometry>
        </mxCell>
        <mxCell id="qrAak1ryVlNVm7ZH4c8O-47" value="" style="line;strokeWidth=1;fillColor=none;align=left;verticalAlign=middle;spacingTop=-1;spacingLeft=3;spacingRight=3;rotatable=0;labelPosition=right;points=[];portConstraint=eastwest;strokeColor=inherit;fontFamily=Comic Sans MS;rounded=1;" parent="qrAak1ryVlNVm7ZH4c8O-46" vertex="1">
          <mxGeometry y="26" width="210" height="8" as="geometry" />
        </mxCell>
        <mxCell id="qrAak1ryVlNVm7ZH4c8O-48" value="+ insert(Index, line)&#xa;delete(Index, Expression)&#xa;update(Index, Expression)" style="text;strokeColor=none;fillColor=none;align=left;verticalAlign=top;spacingLeft=4;spacingRight=4;overflow=hidden;rotatable=0;points=[[0,0.5],[1,0.5]];portConstraint=eastwest;fontFamily=Comic Sans MS;rounded=1;" parent="qrAak1ryVlNVm7ZH4c8O-46" vertex="1">
          <mxGeometry y="34" width="210" height="56" as="geometry" />
        </mxCell>
        <mxCell id="qrAak1ryVlNVm7ZH4c8O-49" value="Use" style="endArrow=open;endSize=12;dashed=1;html=1;rounded=1;strokeColor=default;fontFamily=Comic Sans MS;exitX=0;exitY=0.5;exitDx=0;exitDy=0;edgeStyle=elbowEdgeStyle;entryX=1;entryY=0.5;entryDx=0;entryDy=0;" parent="1" source="qrAak1ryVlNVm7ZH4c8O-48" target="2lpuwBWSwxphZOeOkGQh-23" edge="1">
          <mxGeometry width="160" relative="1" as="geometry">
            <mxPoint x="844" y="552" as="sourcePoint" />
            <mxPoint x="810" y="783" as="targetPoint" />
          </mxGeometry>
        </mxCell>
        <mxCell id="qrAak1ryVlNVm7ZH4c8O-50" value="1" style="endArrow=open;html=1;endSize=12;startArrow=diamondThin;startSize=14;startFill=0;edgeStyle=elbowEdgeStyle;align=left;verticalAlign=bottom;rounded=1;entryX=0.5;entryY=0;entryDx=0;entryDy=0;fontFamily=Comic Sans MS;jumpSize=6;elbow=vertical;" parent="1" source="qrAak1ryVlNVm7ZH4c8O-9" target="qrAak1ryVlNVm7ZH4c8O-41" edge="1">
          <mxGeometry x="-0.8667" y="-21" relative="1" as="geometry">
            <mxPoint x="934" y="355" as="sourcePoint" />
            <mxPoint x="904" y="298" as="targetPoint" />
            <mxPoint as="offset" />
          </mxGeometry>
        </mxCell>
        <mxCell id="qrAak1ryVlNVm7ZH4c8O-51" value="1" style="endArrow=open;html=1;endSize=12;startArrow=diamondThin;startSize=14;startFill=0;edgeStyle=elbowEdgeStyle;align=left;verticalAlign=bottom;rounded=1;entryX=0.5;entryY=0;entryDx=0;entryDy=0;fontFamily=Comic Sans MS;jumpSize=6;elbow=vertical;exitX=0.705;exitY=1.077;exitDx=0;exitDy=0;exitPerimeter=0;" parent="1" source="qrAak1ryVlNVm7ZH4c8O-9" target="qrAak1ryVlNVm7ZH4c8O-46" edge="1">
          <mxGeometry x="-0.8667" y="-21" relative="1" as="geometry">
            <mxPoint x="974" y="365" as="sourcePoint" />
            <mxPoint x="944" y="512" as="targetPoint" />
            <mxPoint as="offset" />
          </mxGeometry>
        </mxCell>
        <mxCell id="7CuqwactgT-sFkg9bI5Z-1" value="MemDbConf" style="swimlane;fontStyle=1;align=center;verticalAlign=top;childLayout=stackLayout;horizontal=1;startSize=26;horizontalStack=0;resizeParent=1;resizeParentMax=0;resizeLast=0;collapsible=1;marginBottom=0;fontFamily=Comic Sans MS;rounded=1;" parent="1" vertex="1">
          <mxGeometry x="174" y="30" width="160" height="158" as="geometry" />
        </mxCell>
        <mxCell id="7CuqwactgT-sFkg9bI5Z-2" value="ForwardConf&#xa;IndexConf" style="text;strokeColor=none;fillColor=none;align=left;verticalAlign=top;spacingLeft=4;spacingRight=4;overflow=hidden;rotatable=0;points=[[0,0.5],[1,0.5]];portConstraint=eastwest;fontFamily=Comic Sans MS;rounded=1;" parent="7CuqwactgT-sFkg9bI5Z-1" vertex="1">
          <mxGeometry y="26" width="160" height="44" as="geometry" />
        </mxCell>
        <mxCell id="7CuqwactgT-sFkg9bI5Z-3" value="" style="line;strokeWidth=1;fillColor=none;align=left;verticalAlign=middle;spacingTop=-1;spacingLeft=3;spacingRight=3;rotatable=0;labelPosition=right;points=[];portConstraint=eastwest;strokeColor=inherit;fontFamily=Comic Sans MS;rounded=1;" parent="7CuqwactgT-sFkg9bI5Z-1" vertex="1">
          <mxGeometry y="70" width="160" height="8" as="geometry" />
        </mxCell>
        <mxCell id="7CuqwactgT-sFkg9bI5Z-4" value="+" style="text;strokeColor=none;fillColor=none;align=left;verticalAlign=top;spacingLeft=4;spacingRight=4;overflow=hidden;rotatable=0;points=[[0,0.5],[1,0.5]];portConstraint=eastwest;fontFamily=Comic Sans MS;rounded=1;" parent="7CuqwactgT-sFkg9bI5Z-1" vertex="1">
          <mxGeometry y="78" width="160" height="80" as="geometry" />
        </mxCell>
        <mxCell id="7CuqwactgT-sFkg9bI5Z-5" value="ForwardConf" style="swimlane;fontStyle=1;align=center;verticalAlign=top;childLayout=stackLayout;horizontal=1;startSize=26;horizontalStack=0;resizeParent=1;resizeParentMax=0;resizeLast=0;collapsible=1;marginBottom=0;fontFamily=Comic Sans MS;rounded=1;" parent="1" vertex="1">
          <mxGeometry x="-90" y="-10" width="140" height="58" as="geometry" />
        </mxCell>
        <mxCell id="7CuqwactgT-sFkg9bI5Z-6" value="vector&lt;FieldInfo&gt;" style="text;strokeColor=none;fillColor=none;align=left;verticalAlign=top;spacingLeft=4;spacingRight=4;overflow=hidden;rotatable=0;points=[[0,0.5],[1,0.5]];portConstraint=eastwest;fontFamily=Comic Sans MS;rounded=1;" parent="7CuqwactgT-sFkg9bI5Z-5" vertex="1">
          <mxGeometry y="26" width="140" height="24" as="geometry" />
        </mxCell>
        <mxCell id="7CuqwactgT-sFkg9bI5Z-7" value="" style="line;strokeWidth=1;fillColor=none;align=left;verticalAlign=middle;spacingTop=-1;spacingLeft=3;spacingRight=3;rotatable=0;labelPosition=right;points=[];portConstraint=eastwest;strokeColor=inherit;fontFamily=Comic Sans MS;rounded=1;" parent="7CuqwactgT-sFkg9bI5Z-5" vertex="1">
          <mxGeometry y="50" width="140" height="8" as="geometry" />
        </mxCell>
        <mxCell id="7CuqwactgT-sFkg9bI5Z-21" value="IndexConf" style="swimlane;fontStyle=1;align=center;verticalAlign=top;childLayout=stackLayout;horizontal=1;startSize=26;horizontalStack=0;resizeParent=1;resizeParentMax=0;resizeLast=0;collapsible=1;marginBottom=0;fontFamily=Comic Sans MS;rounded=1;" parent="1" vertex="1">
          <mxGeometry x="-90" y="110" width="140" height="100" as="geometry" />
        </mxCell>
        <mxCell id="7CuqwactgT-sFkg9bI5Z-22" value="List&lt;IndexItemConf&gt;" style="text;strokeColor=none;fillColor=none;align=left;verticalAlign=top;spacingLeft=4;spacingRight=4;overflow=hidden;rotatable=0;points=[[0,0.5],[1,0.5]];portConstraint=eastwest;fontFamily=Comic Sans MS;rounded=1;" parent="7CuqwactgT-sFkg9bI5Z-21" vertex="1">
          <mxGeometry y="26" width="140" height="34" as="geometry" />
        </mxCell>
        <mxCell id="7CuqwactgT-sFkg9bI5Z-23" value="" style="line;strokeWidth=1;fillColor=none;align=left;verticalAlign=middle;spacingTop=-1;spacingLeft=3;spacingRight=3;rotatable=0;labelPosition=right;points=[];portConstraint=eastwest;strokeColor=inherit;fontFamily=Comic Sans MS;rounded=1;" parent="7CuqwactgT-sFkg9bI5Z-21" vertex="1">
          <mxGeometry y="60" width="140" height="8" as="geometry" />
        </mxCell>
        <mxCell id="7CuqwactgT-sFkg9bI5Z-24" value="load()" style="text;strokeColor=none;fillColor=none;align=left;verticalAlign=top;spacingLeft=4;spacingRight=4;overflow=hidden;rotatable=0;points=[[0,0.5],[1,0.5]];portConstraint=eastwest;fontFamily=Comic Sans MS;rounded=1;" parent="7CuqwactgT-sFkg9bI5Z-21" vertex="1">
          <mxGeometry y="68" width="140" height="32" as="geometry" />
        </mxCell>
        <mxCell id="7CuqwactgT-sFkg9bI5Z-31" value="1" style="endArrow=open;html=1;endSize=12;startArrow=diamondThin;startSize=14;startFill=1;edgeStyle=orthogonalEdgeStyle;align=left;verticalAlign=bottom;rounded=1;exitX=0;exitY=0.5;exitDx=0;exitDy=0;entryX=1;entryY=0.5;entryDx=0;entryDy=0;" parent="1" source="7CuqwactgT-sFkg9bI5Z-2" target="7CuqwactgT-sFkg9bI5Z-6" edge="1">
          <mxGeometry x="-0.7647" y="22" relative="1" as="geometry">
            <mxPoint x="-40" y="340" as="sourcePoint" />
            <mxPoint x="120" y="340" as="targetPoint" />
            <mxPoint as="offset" />
          </mxGeometry>
        </mxCell>
        <mxCell id="7CuqwactgT-sFkg9bI5Z-32" value="1" style="endArrow=open;html=1;endSize=12;startArrow=diamondThin;startSize=14;startFill=1;edgeStyle=orthogonalEdgeStyle;align=left;verticalAlign=bottom;rounded=1;exitX=0;exitY=0.025;exitDx=0;exitDy=0;entryX=1;entryY=0.5;entryDx=0;entryDy=0;exitPerimeter=0;" parent="1" source="7CuqwactgT-sFkg9bI5Z-4" target="7CuqwactgT-sFkg9bI5Z-22" edge="1">
          <mxGeometry x="-0.7546" y="30" relative="1" as="geometry">
            <mxPoint x="180" y="88" as="sourcePoint" />
            <mxPoint x="60" y="68" as="targetPoint" />
            <mxPoint as="offset" />
          </mxGeometry>
        </mxCell>
        <mxCell id="7CuqwactgT-sFkg9bI5Z-33" value="1" style="endArrow=open;html=1;endSize=12;startArrow=diamondThin;startSize=14;startFill=0;edgeStyle=orthogonalEdgeStyle;align=left;verticalAlign=bottom;rounded=1;entryX=-0.019;entryY=0.613;entryDx=0;entryDy=0;fontFamily=Comic Sans MS;entryPerimeter=0;" parent="1" source="qrAak1ryVlNVm7ZH4c8O-2" target="qrAak1ryVlNVm7ZH4c8O-7" edge="1">
          <mxGeometry x="-0.8667" y="-21" relative="1" as="geometry">
            <mxPoint x="344" y="313" as="sourcePoint" />
            <mxPoint x="484" y="313" as="targetPoint" />
            <mxPoint as="offset" />
          </mxGeometry>
        </mxCell>
        <mxCell id="7CuqwactgT-sFkg9bI5Z-34" value="FieldInfo" style="swimlane;fontStyle=1;align=center;verticalAlign=top;childLayout=stackLayout;horizontal=1;startSize=26;horizontalStack=0;resizeParent=1;resizeParentMax=0;resizeLast=0;collapsible=1;marginBottom=0;fontFamily=Comic Sans MS;rounded=1;" parent="1" vertex="1">
          <mxGeometry x="-90" y="245" width="140" height="130" as="geometry" />
        </mxCell>
        <mxCell id="7CuqwactgT-sFkg9bI5Z-35" value="field_name&#xa;field_type" style="text;strokeColor=none;fillColor=none;align=left;verticalAlign=top;spacingLeft=4;spacingRight=4;overflow=hidden;rotatable=0;points=[[0,0.5],[1,0.5]];portConstraint=eastwest;fontFamily=Comic Sans MS;rounded=1;" parent="7CuqwactgT-sFkg9bI5Z-34" vertex="1">
          <mxGeometry y="26" width="140" height="64" as="geometry" />
        </mxCell>
        <mxCell id="7CuqwactgT-sFkg9bI5Z-36" value="" style="line;strokeWidth=1;fillColor=none;align=left;verticalAlign=middle;spacingTop=-1;spacingLeft=3;spacingRight=3;rotatable=0;labelPosition=right;points=[];portConstraint=eastwest;strokeColor=inherit;fontFamily=Comic Sans MS;rounded=1;" parent="7CuqwactgT-sFkg9bI5Z-34" vertex="1">
          <mxGeometry y="90" width="140" height="8" as="geometry" />
        </mxCell>
        <mxCell id="7CuqwactgT-sFkg9bI5Z-37" value="load()" style="text;strokeColor=none;fillColor=none;align=left;verticalAlign=top;spacingLeft=4;spacingRight=4;overflow=hidden;rotatable=0;points=[[0,0.5],[1,0.5]];portConstraint=eastwest;fontFamily=Comic Sans MS;rounded=1;" parent="7CuqwactgT-sFkg9bI5Z-34" vertex="1">
          <mxGeometry y="98" width="140" height="32" as="geometry" />
        </mxCell>
        <mxCell id="7CuqwactgT-sFkg9bI5Z-38" value="ExpressionParser" style="swimlane;fontStyle=1;align=center;verticalAlign=top;childLayout=stackLayout;horizontal=1;startSize=26;horizontalStack=0;resizeParent=1;resizeParentMax=0;resizeLast=0;collapsible=1;marginBottom=0;fontFamily=Comic Sans MS;rounded=1;" parent="1" vertex="1">
          <mxGeometry x="5" y="550" width="325" height="110" as="geometry" />
        </mxCell>
        <mxCell id="7CuqwactgT-sFkg9bI5Z-39" value="+" style="text;strokeColor=none;fillColor=none;align=left;verticalAlign=top;spacingLeft=4;spacingRight=4;overflow=hidden;rotatable=0;points=[[0,0.5],[1,0.5]];portConstraint=eastwest;fontFamily=Comic Sans MS;rounded=1;" parent="7CuqwactgT-sFkg9bI5Z-38" vertex="1">
          <mxGeometry y="26" width="325" height="44" as="geometry" />
        </mxCell>
        <mxCell id="7CuqwactgT-sFkg9bI5Z-40" value="" style="line;strokeWidth=1;fillColor=none;align=left;verticalAlign=middle;spacingTop=-1;spacingLeft=3;spacingRight=3;rotatable=0;labelPosition=right;points=[];portConstraint=eastwest;strokeColor=inherit;fontFamily=Comic Sans MS;rounded=1;" parent="7CuqwactgT-sFkg9bI5Z-38" vertex="1">
          <mxGeometry y="70" width="325" height="8" as="geometry" />
        </mxCell>
        <mxCell id="7CuqwactgT-sFkg9bI5Z-41" value="parse(TokenVec &amp;token_vec, Expression&amp; expression)" style="text;strokeColor=none;fillColor=none;align=left;verticalAlign=top;spacingLeft=4;spacingRight=4;overflow=hidden;rotatable=0;points=[[0,0.5],[1,0.5]];portConstraint=eastwest;fontFamily=Comic Sans MS;rounded=1;" parent="7CuqwactgT-sFkg9bI5Z-38" vertex="1">
          <mxGeometry y="78" width="325" height="32" as="geometry" />
        </mxCell>
        <mxCell id="7CuqwactgT-sFkg9bI5Z-47" value="1" style="endArrow=open;html=1;endSize=12;startArrow=diamondThin;startSize=14;startFill=0;edgeStyle=elbowEdgeStyle;align=left;verticalAlign=bottom;rounded=1;fontFamily=Comic Sans MS;entryX=1;entryY=0.5;entryDx=0;entryDy=0;" parent="1" source="qrAak1ryVlNVm7ZH4c8O-2" target="7CuqwactgT-sFkg9bI5Z-35" edge="1">
          <mxGeometry x="-0.8667" y="-21" relative="1" as="geometry">
            <mxPoint x="80" y="340" as="sourcePoint" />
            <mxPoint x="30" y="286" as="targetPoint" />
            <mxPoint as="offset" />
          </mxGeometry>
        </mxCell>
        <mxCell id="7CuqwactgT-sFkg9bI5Z-50" value="Use" style="endArrow=open;endSize=12;dashed=1;html=1;rounded=1;exitX=0.5;exitY=0;exitDx=0;exitDy=0;entryX=0.5;entryY=1;entryDx=0;entryDy=0;entryPerimeter=0;" parent="1" source="7CuqwactgT-sFkg9bI5Z-34" target="7CuqwactgT-sFkg9bI5Z-24" edge="1">
          <mxGeometry width="160" relative="1" as="geometry">
            <mxPoint x="-260" y="470" as="sourcePoint" />
            <mxPoint x="-100" y="470" as="targetPoint" />
          </mxGeometry>
        </mxCell>
        <mxCell id="2lpuwBWSwxphZOeOkGQh-1" value="HashMap" style="swimlane;fontStyle=1;align=center;verticalAlign=top;childLayout=stackLayout;horizontal=1;startSize=26;horizontalStack=0;resizeParent=1;resizeParentMax=0;resizeLast=0;collapsible=1;marginBottom=0;fontFamily=Comic Sans MS;rounded=1;" parent="1" vertex="1">
          <mxGeometry x="1201" y="845" width="160" height="86" as="geometry" />
        </mxCell>
        <mxCell id="2lpuwBWSwxphZOeOkGQh-2" value="enum index_type;" style="text;strokeColor=none;fillColor=none;align=left;verticalAlign=top;spacingLeft=4;spacingRight=4;overflow=hidden;rotatable=0;points=[[0,0.5],[1,0.5]];portConstraint=eastwest;fontFamily=Comic Sans MS;rounded=1;" parent="2lpuwBWSwxphZOeOkGQh-1" vertex="1">
          <mxGeometry y="26" width="160" height="26" as="geometry" />
        </mxCell>
        <mxCell id="2lpuwBWSwxphZOeOkGQh-3" value="" style="line;strokeWidth=1;fillColor=none;align=left;verticalAlign=middle;spacingTop=-1;spacingLeft=3;spacingRight=3;rotatable=0;labelPosition=right;points=[];portConstraint=eastwest;strokeColor=inherit;fontFamily=Comic Sans MS;rounded=1;" parent="2lpuwBWSwxphZOeOkGQh-1" vertex="1">
          <mxGeometry y="52" width="160" height="8" as="geometry" />
        </mxCell>
        <mxCell id="2lpuwBWSwxphZOeOkGQh-4" value="+ method(type): type" style="text;strokeColor=none;fillColor=none;align=left;verticalAlign=top;spacingLeft=4;spacingRight=4;overflow=hidden;rotatable=0;points=[[0,0.5],[1,0.5]];portConstraint=eastwest;fontFamily=Comic Sans MS;rounded=1;" parent="2lpuwBWSwxphZOeOkGQh-1" vertex="1">
          <mxGeometry y="60" width="160" height="26" as="geometry" />
        </mxCell>
        <mxCell id="2lpuwBWSwxphZOeOkGQh-5" value="SkipList" style="swimlane;fontStyle=1;align=center;verticalAlign=top;childLayout=stackLayout;horizontal=1;startSize=26;horizontalStack=0;resizeParent=1;resizeParentMax=0;resizeLast=0;collapsible=1;marginBottom=0;fontFamily=Comic Sans MS;rounded=1;" parent="1" vertex="1">
          <mxGeometry x="1670" y="851" width="160" height="86" as="geometry" />
        </mxCell>
        <mxCell id="2lpuwBWSwxphZOeOkGQh-6" value="enum index_type;" style="text;strokeColor=none;fillColor=none;align=left;verticalAlign=top;spacingLeft=4;spacingRight=4;overflow=hidden;rotatable=0;points=[[0,0.5],[1,0.5]];portConstraint=eastwest;fontFamily=Comic Sans MS;rounded=1;" parent="2lpuwBWSwxphZOeOkGQh-5" vertex="1">
          <mxGeometry y="26" width="160" height="26" as="geometry" />
        </mxCell>
        <mxCell id="2lpuwBWSwxphZOeOkGQh-7" value="" style="line;strokeWidth=1;fillColor=none;align=left;verticalAlign=middle;spacingTop=-1;spacingLeft=3;spacingRight=3;rotatable=0;labelPosition=right;points=[];portConstraint=eastwest;strokeColor=inherit;fontFamily=Comic Sans MS;rounded=1;" parent="2lpuwBWSwxphZOeOkGQh-5" vertex="1">
          <mxGeometry y="52" width="160" height="8" as="geometry" />
        </mxCell>
        <mxCell id="2lpuwBWSwxphZOeOkGQh-8" value="+ method(type): type" style="text;strokeColor=none;fillColor=none;align=left;verticalAlign=top;spacingLeft=4;spacingRight=4;overflow=hidden;rotatable=0;points=[[0,0.5],[1,0.5]];portConstraint=eastwest;fontFamily=Comic Sans MS;rounded=1;" parent="2lpuwBWSwxphZOeOkGQh-5" vertex="1">
          <mxGeometry y="60" width="160" height="26" as="geometry" />
        </mxCell>
        <mxCell id="2lpuwBWSwxphZOeOkGQh-9" value="1" style="endArrow=open;html=1;endSize=12;startArrow=diamondThin;startSize=14;startFill=0;edgeStyle=elbowEdgeStyle;align=left;verticalAlign=bottom;rounded=1;fontFamily=Comic Sans MS;jumpSize=6;elbow=vertical;" parent="1" source="qrAak1ryVlNVm7ZH4c8O-17" edge="1">
          <mxGeometry x="-0.8667" y="-21" relative="1" as="geometry">
            <mxPoint x="1160" y="845" as="sourcePoint" />
            <mxPoint x="1281" y="845" as="targetPoint" />
            <mxPoint as="offset" />
          </mxGeometry>
        </mxCell>
        <mxCell id="2lpuwBWSwxphZOeOkGQh-10" value="1" style="endArrow=open;html=1;endSize=12;startArrow=diamondThin;startSize=14;startFill=0;edgeStyle=elbowEdgeStyle;align=left;verticalAlign=bottom;rounded=1;fontFamily=Comic Sans MS;jumpSize=6;elbow=vertical;exitX=0.488;exitY=1;exitDx=0;exitDy=0;exitPerimeter=0;entryX=0.5;entryY=0;entryDx=0;entryDy=0;" parent="1" source="qrAak1ryVlNVm7ZH4c8O-21" target="2lpuwBWSwxphZOeOkGQh-5" edge="1">
          <mxGeometry x="-0.8667" y="-21" relative="1" as="geometry">
            <mxPoint x="1562" y="801" as="sourcePoint" />
            <mxPoint x="1562" y="861" as="targetPoint" />
            <mxPoint as="offset" />
          </mxGeometry>
        </mxCell>
        <mxCell id="2lpuwBWSwxphZOeOkGQh-22" value="Expression" style="swimlane;fontStyle=1;align=center;verticalAlign=top;childLayout=stackLayout;horizontal=1;startSize=26;horizontalStack=0;resizeParent=1;resizeParentMax=0;resizeLast=0;collapsible=1;marginBottom=0;fontFamily=Comic Sans MS;rounded=1;" parent="1" vertex="1">
          <mxGeometry x="200" y="740" width="200" height="130" as="geometry" />
        </mxCell>
        <mxCell id="2lpuwBWSwxphZOeOkGQh-23" value="vector&lt;Term&gt; _term_vec&#xa;vector&lt;Token&gt; _logic_opera_vec" style="text;strokeColor=none;fillColor=none;align=left;verticalAlign=top;spacingLeft=4;spacingRight=4;overflow=hidden;rotatable=0;points=[[0,0.5],[1,0.5]];portConstraint=eastwest;fontFamily=Comic Sans MS;rounded=1;" parent="2lpuwBWSwxphZOeOkGQh-22" vertex="1">
          <mxGeometry y="26" width="200" height="64" as="geometry" />
        </mxCell>
        <mxCell id="2lpuwBWSwxphZOeOkGQh-24" value="" style="line;strokeWidth=1;fillColor=none;align=left;verticalAlign=middle;spacingTop=-1;spacingLeft=3;spacingRight=3;rotatable=0;labelPosition=right;points=[];portConstraint=eastwest;strokeColor=inherit;fontFamily=Comic Sans MS;rounded=1;" parent="2lpuwBWSwxphZOeOkGQh-22" vertex="1">
          <mxGeometry y="90" width="200" height="8" as="geometry" />
        </mxCell>
        <mxCell id="2lpuwBWSwxphZOeOkGQh-25" value="+" style="text;strokeColor=none;fillColor=none;align=left;verticalAlign=top;spacingLeft=4;spacingRight=4;overflow=hidden;rotatable=0;points=[[0,0.5],[1,0.5]];portConstraint=eastwest;fontFamily=Comic Sans MS;rounded=1;" parent="2lpuwBWSwxphZOeOkGQh-22" vertex="1">
          <mxGeometry y="98" width="200" height="32" as="geometry" />
        </mxCell>
        <mxCell id="2lpuwBWSwxphZOeOkGQh-27" value="Token" style="swimlane;fontStyle=1;align=center;verticalAlign=top;childLayout=stackLayout;horizontal=1;startSize=26;horizontalStack=0;resizeParent=1;resizeParentMax=0;resizeLast=0;collapsible=1;marginBottom=0;fontFamily=Comic Sans MS;rounded=1;" parent="1" vertex="1">
          <mxGeometry x="-425" y="736" width="200" height="130" as="geometry" />
        </mxCell>
        <mxCell id="2lpuwBWSwxphZOeOkGQh-28" value="TokenType _type&#xa;std::string _str_value&#xa;" style="text;strokeColor=none;fillColor=none;align=left;verticalAlign=top;spacingLeft=4;spacingRight=4;overflow=hidden;rotatable=0;points=[[0,0.5],[1,0.5]];portConstraint=eastwest;fontFamily=Comic Sans MS;rounded=1;" parent="2lpuwBWSwxphZOeOkGQh-27" vertex="1">
          <mxGeometry y="26" width="200" height="64" as="geometry" />
        </mxCell>
        <mxCell id="2lpuwBWSwxphZOeOkGQh-29" value="" style="line;strokeWidth=1;fillColor=none;align=left;verticalAlign=middle;spacingTop=-1;spacingLeft=3;spacingRight=3;rotatable=0;labelPosition=right;points=[];portConstraint=eastwest;strokeColor=inherit;fontFamily=Comic Sans MS;rounded=1;" parent="2lpuwBWSwxphZOeOkGQh-27" vertex="1">
          <mxGeometry y="90" width="200" height="8" as="geometry" />
        </mxCell>
        <mxCell id="2lpuwBWSwxphZOeOkGQh-30" value="+" style="text;strokeColor=none;fillColor=none;align=left;verticalAlign=top;spacingLeft=4;spacingRight=4;overflow=hidden;rotatable=0;points=[[0,0.5],[1,0.5]];portConstraint=eastwest;fontFamily=Comic Sans MS;rounded=1;" parent="2lpuwBWSwxphZOeOkGQh-27" vertex="1">
          <mxGeometry y="98" width="200" height="32" as="geometry" />
        </mxCell>
        <mxCell id="2lpuwBWSwxphZOeOkGQh-31" value="TokenParser" style="swimlane;fontStyle=1;align=center;verticalAlign=top;childLayout=stackLayout;horizontal=1;startSize=26;horizontalStack=0;resizeParent=1;resizeParentMax=0;resizeLast=0;collapsible=1;marginBottom=0;fontFamily=Comic Sans MS;rounded=1;" parent="1" vertex="1">
          <mxGeometry x="-450" y="527" width="250" height="130" as="geometry" />
        </mxCell>
        <mxCell id="2lpuwBWSwxphZOeOkGQh-32" value="vector&lt;Token&gt; _var_vec&#xa;vector&lt;Token&gt; _opera_vec&#xa;vector&lt;Token&gt; _logic_opera_vec" style="text;strokeColor=none;fillColor=none;align=left;verticalAlign=top;spacingLeft=4;spacingRight=4;overflow=hidden;rotatable=0;points=[[0,0.5],[1,0.5]];portConstraint=eastwest;fontFamily=Comic Sans MS;rounded=1;" parent="2lpuwBWSwxphZOeOkGQh-31" vertex="1">
          <mxGeometry y="26" width="250" height="64" as="geometry" />
        </mxCell>
        <mxCell id="2lpuwBWSwxphZOeOkGQh-33" value="" style="line;strokeWidth=1;fillColor=none;align=left;verticalAlign=middle;spacingTop=-1;spacingLeft=3;spacingRight=3;rotatable=0;labelPosition=right;points=[];portConstraint=eastwest;strokeColor=inherit;fontFamily=Comic Sans MS;rounded=1;" parent="2lpuwBWSwxphZOeOkGQh-31" vertex="1">
          <mxGeometry y="90" width="250" height="8" as="geometry" />
        </mxCell>
        <mxCell id="2lpuwBWSwxphZOeOkGQh-34" value="generate_token_vec(exp_str, token_vec)" style="text;strokeColor=none;fillColor=none;align=left;verticalAlign=top;spacingLeft=4;spacingRight=4;overflow=hidden;rotatable=0;points=[[0,0.5],[1,0.5]];portConstraint=eastwest;fontFamily=Comic Sans MS;rounded=1;" parent="2lpuwBWSwxphZOeOkGQh-31" vertex="1">
          <mxGeometry y="98" width="250" height="32" as="geometry" />
        </mxCell>
        <mxCell id="2lpuwBWSwxphZOeOkGQh-36" value="Use" style="endArrow=open;endSize=12;dashed=1;html=1;rounded=1;entryX=0.5;entryY=0;entryDx=0;entryDy=0;" parent="1" source="2lpuwBWSwxphZOeOkGQh-34" target="2lpuwBWSwxphZOeOkGQh-27" edge="1">
          <mxGeometry width="160" relative="1" as="geometry">
            <mxPoint x="-315" y="692" as="sourcePoint" />
            <mxPoint x="-370" y="695" as="targetPoint" />
          </mxGeometry>
        </mxCell>
        <mxCell id="2lpuwBWSwxphZOeOkGQh-37" value="IndexKey" style="swimlane;fontStyle=1;align=center;verticalAlign=top;childLayout=stackLayout;horizontal=1;startSize=26;horizontalStack=0;resizeParent=1;resizeParentMax=0;resizeLast=0;collapsible=1;marginBottom=0;fontFamily=Comic Sans MS;rounded=1;" parent="1" vertex="1">
          <mxGeometry x="1430" y="665" width="160" height="86" as="geometry" />
        </mxCell>
        <mxCell id="2lpuwBWSwxphZOeOkGQh-38" value="vector&lt;any&gt; _key_vec" style="text;strokeColor=none;fillColor=none;align=left;verticalAlign=top;spacingLeft=4;spacingRight=4;overflow=hidden;rotatable=0;points=[[0,0.5],[1,0.5]];portConstraint=eastwest;fontFamily=Comic Sans MS;rounded=1;" parent="2lpuwBWSwxphZOeOkGQh-37" vertex="1">
          <mxGeometry y="26" width="160" height="26" as="geometry" />
        </mxCell>
        <mxCell id="2lpuwBWSwxphZOeOkGQh-39" value="" style="line;strokeWidth=1;fillColor=none;align=left;verticalAlign=middle;spacingTop=-1;spacingLeft=3;spacingRight=3;rotatable=0;labelPosition=right;points=[];portConstraint=eastwest;strokeColor=inherit;fontFamily=Comic Sans MS;rounded=1;" parent="2lpuwBWSwxphZOeOkGQh-37" vertex="1">
          <mxGeometry y="52" width="160" height="8" as="geometry" />
        </mxCell>
        <mxCell id="2lpuwBWSwxphZOeOkGQh-40" value="+" style="text;strokeColor=none;fillColor=none;align=left;verticalAlign=top;spacingLeft=4;spacingRight=4;overflow=hidden;rotatable=0;points=[[0,0.5],[1,0.5]];portConstraint=eastwest;fontFamily=Comic Sans MS;rounded=1;" parent="2lpuwBWSwxphZOeOkGQh-37" vertex="1">
          <mxGeometry y="60" width="160" height="26" as="geometry" />
        </mxCell>
        <mxCell id="2lpuwBWSwxphZOeOkGQh-45" value="Use" style="endArrow=open;endSize=12;dashed=1;html=1;rounded=1;strokeColor=default;fontFamily=Comic Sans MS;edgeStyle=elbowEdgeStyle;exitX=1;exitY=0.5;exitDx=0;exitDy=0;entryX=0;entryY=0.5;entryDx=0;entryDy=0;" parent="1" source="qrAak1ryVlNVm7ZH4c8O-15" target="2lpuwBWSwxphZOeOkGQh-38" edge="1">
          <mxGeometry width="160" relative="1" as="geometry">
            <mxPoint x="1365" y="735" as="sourcePoint" />
            <mxPoint x="1430" y="735" as="targetPoint" />
          </mxGeometry>
        </mxCell>
        <mxCell id="2lpuwBWSwxphZOeOkGQh-46" value="Use" style="endArrow=open;endSize=12;dashed=1;html=1;rounded=1;strokeColor=default;fontFamily=Comic Sans MS;exitX=0;exitY=0.5;exitDx=0;exitDy=0;edgeStyle=elbowEdgeStyle;entryX=1;entryY=0.5;entryDx=0;entryDy=0;" parent="1" source="qrAak1ryVlNVm7ZH4c8O-19" target="2lpuwBWSwxphZOeOkGQh-37" edge="1">
          <mxGeometry width="160" relative="1" as="geometry">
            <mxPoint x="1620" y="845" as="sourcePoint" />
            <mxPoint x="1480" y="981" as="targetPoint" />
          </mxGeometry>
        </mxCell>
        <mxCell id="2lpuwBWSwxphZOeOkGQh-48" value="IndexValue" style="swimlane;fontStyle=1;align=center;verticalAlign=top;childLayout=stackLayout;horizontal=1;startSize=26;horizontalStack=0;resizeParent=1;resizeParentMax=0;resizeLast=0;collapsible=1;marginBottom=0;fontFamily=Comic Sans MS;rounded=1;" parent="1" vertex="1">
          <mxGeometry x="1430" y="775" width="160" height="94" as="geometry" />
        </mxCell>
        <mxCell id="2lpuwBWSwxphZOeOkGQh-49" value="Value&#xa;_is_del" style="text;strokeColor=none;fillColor=none;align=left;verticalAlign=top;spacingLeft=4;spacingRight=4;overflow=hidden;rotatable=0;points=[[0,0.5],[1,0.5]];portConstraint=eastwest;fontFamily=Comic Sans MS;rounded=1;" parent="2lpuwBWSwxphZOeOkGQh-48" vertex="1">
          <mxGeometry y="26" width="160" height="34" as="geometry" />
        </mxCell>
        <mxCell id="2lpuwBWSwxphZOeOkGQh-50" value="" style="line;strokeWidth=1;fillColor=none;align=left;verticalAlign=middle;spacingTop=-1;spacingLeft=3;spacingRight=3;rotatable=0;labelPosition=right;points=[];portConstraint=eastwest;strokeColor=inherit;fontFamily=Comic Sans MS;rounded=1;" parent="2lpuwBWSwxphZOeOkGQh-48" vertex="1">
          <mxGeometry y="60" width="160" height="8" as="geometry" />
        </mxCell>
        <mxCell id="2lpuwBWSwxphZOeOkGQh-51" value="+" style="text;strokeColor=none;fillColor=none;align=left;verticalAlign=top;spacingLeft=4;spacingRight=4;overflow=hidden;rotatable=0;points=[[0,0.5],[1,0.5]];portConstraint=eastwest;fontFamily=Comic Sans MS;rounded=1;" parent="2lpuwBWSwxphZOeOkGQh-48" vertex="1">
          <mxGeometry y="68" width="160" height="26" as="geometry" />
        </mxCell>
        <mxCell id="2lpuwBWSwxphZOeOkGQh-52" value="Use" style="endArrow=open;endSize=12;dashed=1;html=1;rounded=1;strokeColor=default;fontFamily=Comic Sans MS;edgeStyle=elbowEdgeStyle;exitX=1;exitY=0.5;exitDx=0;exitDy=0;entryX=0;entryY=0.5;entryDx=0;entryDy=0;" parent="1" source="qrAak1ryVlNVm7ZH4c8O-17" target="2lpuwBWSwxphZOeOkGQh-49" edge="1">
          <mxGeometry width="160" relative="1" as="geometry">
            <mxPoint x="1371" y="750" as="sourcePoint" />
            <mxPoint x="1440" y="714" as="targetPoint" />
          </mxGeometry>
        </mxCell>
        <mxCell id="2lpuwBWSwxphZOeOkGQh-54" value="Use" style="endArrow=open;endSize=12;dashed=1;html=1;rounded=1;strokeColor=default;fontFamily=Comic Sans MS;exitX=0;exitY=0.5;exitDx=0;exitDy=0;edgeStyle=elbowEdgeStyle;entryX=1;entryY=0.5;entryDx=0;entryDy=0;" parent="1" source="qrAak1ryVlNVm7ZH4c8O-21" target="2lpuwBWSwxphZOeOkGQh-49" edge="1">
          <mxGeometry width="160" relative="1" as="geometry">
            <mxPoint x="1682" y="754" as="sourcePoint" />
            <mxPoint x="1600" y="718" as="targetPoint" />
          </mxGeometry>
        </mxCell>
        <mxCell id="2lpuwBWSwxphZOeOkGQh-55" value="Term" style="swimlane;fontStyle=1;align=center;verticalAlign=top;childLayout=stackLayout;horizontal=1;startSize=26;horizontalStack=0;resizeParent=1;resizeParentMax=0;resizeLast=0;collapsible=1;marginBottom=0;fontFamily=Comic Sans MS;rounded=1;" parent="1" vertex="1">
          <mxGeometry x="-150" y="736" width="200" height="130" as="geometry" />
        </mxCell>
        <mxCell id="2lpuwBWSwxphZOeOkGQh-56" value="Token _field_token&#xa;Token _opera_token&#xa;Token _value_token" style="text;strokeColor=none;fillColor=none;align=left;verticalAlign=top;spacingLeft=4;spacingRight=4;overflow=hidden;rotatable=0;points=[[0,0.5],[1,0.5]];portConstraint=eastwest;fontFamily=Comic Sans MS;rounded=1;" parent="2lpuwBWSwxphZOeOkGQh-55" vertex="1">
          <mxGeometry y="26" width="200" height="64" as="geometry" />
        </mxCell>
        <mxCell id="2lpuwBWSwxphZOeOkGQh-57" value="" style="line;strokeWidth=1;fillColor=none;align=left;verticalAlign=middle;spacingTop=-1;spacingLeft=3;spacingRight=3;rotatable=0;labelPosition=right;points=[];portConstraint=eastwest;strokeColor=inherit;fontFamily=Comic Sans MS;rounded=1;" parent="2lpuwBWSwxphZOeOkGQh-55" vertex="1">
          <mxGeometry y="90" width="200" height="8" as="geometry" />
        </mxCell>
        <mxCell id="2lpuwBWSwxphZOeOkGQh-58" value="+" style="text;strokeColor=none;fillColor=none;align=left;verticalAlign=top;spacingLeft=4;spacingRight=4;overflow=hidden;rotatable=0;points=[[0,0.5],[1,0.5]];portConstraint=eastwest;fontFamily=Comic Sans MS;rounded=1;" parent="2lpuwBWSwxphZOeOkGQh-55" vertex="1">
          <mxGeometry y="98" width="200" height="32" as="geometry" />
        </mxCell>
        <mxCell id="2lpuwBWSwxphZOeOkGQh-59" value="Use" style="endArrow=open;endSize=12;dashed=1;html=1;rounded=1;exitX=0;exitY=0.5;exitDx=0;exitDy=0;entryX=1;entryY=0.5;entryDx=0;entryDy=0;" parent="1" source="2lpuwBWSwxphZOeOkGQh-56" target="2lpuwBWSwxphZOeOkGQh-28" edge="1">
          <mxGeometry width="160" relative="1" as="geometry">
            <mxPoint x="-115" y="915" as="sourcePoint" />
            <mxPoint x="-320" y="903" as="targetPoint" />
          </mxGeometry>
        </mxCell>
        <mxCell id="2lpuwBWSwxphZOeOkGQh-60" value="Use" style="endArrow=open;endSize=12;dashed=1;html=1;rounded=1;strokeColor=default;fontFamily=Comic Sans MS;exitX=0;exitY=0.5;exitDx=0;exitDy=0;entryX=1.008;entryY=0.625;entryDx=0;entryDy=0;entryPerimeter=0;edgeStyle=elbowEdgeStyle;" parent="1" source="2lpuwBWSwxphZOeOkGQh-23" target="2lpuwBWSwxphZOeOkGQh-56" edge="1">
          <mxGeometry width="160" relative="1" as="geometry">
            <mxPoint x="-162" y="610" as="sourcePoint" />
            <mxPoint x="50" y="800" as="targetPoint" />
            <mxPoint as="offset" />
          </mxGeometry>
        </mxCell>
        <mxCell id="WtH-WUSI_EDCqsSVwGOt-7" value="IndexStructDescriptor" style="swimlane;fontStyle=1;align=center;verticalAlign=top;childLayout=stackLayout;horizontal=1;startSize=26;horizontalStack=0;resizeParent=1;resizeParentMax=0;resizeLast=0;collapsible=1;marginBottom=0;fontFamily=Comic Sans MS;rounded=1;" vertex="1" parent="1">
          <mxGeometry x="480" y="357" width="230" height="154" as="geometry" />
        </mxCell>
        <mxCell id="WtH-WUSI_EDCqsSVwGOt-8" value="IndexIdMap _index_id_map&#xa;IndexStructMap _index_struct_map&#xa;&#xa;" style="text;strokeColor=none;fillColor=none;align=left;verticalAlign=top;spacingLeft=4;spacingRight=4;overflow=hidden;rotatable=0;points=[[0,0.5],[1,0.5]];portConstraint=eastwest;fontFamily=Comic Sans MS;rounded=1;" vertex="1" parent="WtH-WUSI_EDCqsSVwGOt-7">
          <mxGeometry y="26" width="230" height="94" as="geometry" />
        </mxCell>
        <mxCell id="WtH-WUSI_EDCqsSVwGOt-9" value="" style="line;strokeWidth=1;fillColor=none;align=left;verticalAlign=middle;spacingTop=-1;spacingLeft=3;spacingRight=3;rotatable=0;labelPosition=right;points=[];portConstraint=eastwest;strokeColor=inherit;fontFamily=Comic Sans MS;rounded=1;" vertex="1" parent="WtH-WUSI_EDCqsSVwGOt-7">
          <mxGeometry y="120" width="230" height="8" as="geometry" />
        </mxCell>
        <mxCell id="WtH-WUSI_EDCqsSVwGOt-10" value="+Â get_struct_for_index" style="text;strokeColor=none;fillColor=none;align=left;verticalAlign=top;spacingLeft=4;spacingRight=4;overflow=hidden;rotatable=0;points=[[0,0.5],[1,0.5]];portConstraint=eastwest;fontFamily=Comic Sans MS;rounded=1;" vertex="1" parent="WtH-WUSI_EDCqsSVwGOt-7">
          <mxGeometry y="128" width="230" height="26" as="geometry" />
        </mxCell>
        <mxCell id="WtH-WUSI_EDCqsSVwGOt-11" value="Use" style="endArrow=open;endSize=12;dashed=1;html=1;rounded=1;strokeColor=default;fontFamily=Comic Sans MS;entryX=1.006;entryY=0.422;entryDx=0;entryDy=0;edgeStyle=elbowEdgeStyle;entryPerimeter=0;" edge="1" parent="1" target="WtH-WUSI_EDCqsSVwGOt-8">
          <mxGeometry width="160" relative="1" as="geometry">
            <mxPoint x="880" y="350" as="sourcePoint" />
            <mxPoint x="360" y="750" as="targetPoint" />
          </mxGeometry>
        </mxCell>
        <mxCell id="WtH-WUSI_EDCqsSVwGOt-12" value="Use" style="endArrow=open;endSize=12;dashed=1;html=1;rounded=1;strokeColor=default;fontFamily=Comic Sans MS;exitX=1.006;exitY=0.652;exitDx=0;exitDy=0;edgeStyle=elbowEdgeStyle;exitPerimeter=0;entryX=0;entryY=0.5;entryDx=0;entryDy=0;" edge="1" parent="1" source="qrAak1ryVlNVm7ZH4c8O-4" target="WtH-WUSI_EDCqsSVwGOt-8">
          <mxGeometry width="160" relative="1" as="geometry">
            <mxPoint x="462" y="448" as="sourcePoint" />
            <mxPoint x="410" y="410" as="targetPoint" />
          </mxGeometry>
        </mxCell>
      </root>
    </mxGraphModel>
  </diagram>
</mxfile>
